<svg width="25" height="25" viewBox="0 0 25 25" fill="none" xmlns="http://www.w3.org/2000/svg">
<path d="M12.5 8.33423C10.2063 8.33423 8.3344 10.2061 8.3344 12.4999C8.3344 14.7936 10.2063 16.6655 12.5 16.6655C14.7938 16.6655 16.6657 14.7936 16.6657 12.4999C16.6657 10.2061 14.7938 8.33423 12.5 8.33423ZM24.9938 12.4999C24.9938 10.7749 25.0094 9.06548 24.9125 7.34361C24.8157 5.34361 24.3594 3.5686 22.8969 2.10611C21.4313 0.64048 19.6594 0.187355 17.6594 0.0904802C15.9344 -0.00639475 14.225 0.00923029 12.5031 0.00923029C10.7781 0.00923029 9.06878 -0.00639475 7.3469 0.0904802C5.3469 0.187355 3.5719 0.643605 2.1094 2.10611C0.643776 3.57173 0.190651 5.34361 0.0937761 7.34361C-0.00309885 9.06861 0.0125262 10.778 0.0125262 12.4999C0.0125262 14.2217 -0.00309885 15.9342 0.0937761 17.6561C0.190651 19.6561 0.646901 21.4311 2.1094 22.8936C3.57503 24.3592 5.3469 24.8124 7.3469 24.9092C9.0719 25.0061 10.7813 24.9905 12.5031 24.9905C14.2282 24.9905 15.9375 25.0061 17.6594 24.9092C19.6594 24.8124 21.4344 24.3561 22.8969 22.8936C24.3625 21.428 24.8157 19.6561 24.9125 17.6561C25.0125 15.9342 24.9938 14.2249 24.9938 12.4999ZM12.5 18.9092C8.95315 18.9092 6.09065 16.0467 6.09065 12.4999C6.09065 8.95298 8.95315 6.09048 12.5 6.09048C16.0469 6.09048 18.9094 8.95298 18.9094 12.4999C18.9094 16.0467 16.0469 18.9092 12.5 18.9092ZM19.1719 7.32485C18.3438 7.32485 17.675 6.65611 17.675 5.82798C17.675 4.99986 18.3438 4.33111 19.1719 4.33111C20 4.33111 20.6688 4.99986 20.6688 5.82798C20.669 6.02462 20.6305 6.21938 20.5553 6.4011C20.4802 6.58282 20.3699 6.74793 20.2309 6.88698C20.0919 7.02603 19.9267 7.13628 19.745 7.21142C19.5633 7.28655 19.3685 7.3251 19.1719 7.32485Z" fill="url(#paint0_linear_7_267)"/>
<defs>
<linearGradient id="paint0_linear_7_267" x1="4.75848" y1="7.2534" x2="12.5031" y2="24.9915" gradientUnits="userSpaceOnUse">
<stop stop-color="#00D4E0"/>
<stop offset="1" stop-color="#0C6BED"/>
</linearGradient>
</defs>
</svg>
