<svg width="32" height="32" viewBox="0 0 32 32" fill="none" xmlns="http://www.w3.org/2000/svg">
<path d="M10.688 9.30957C10.3334 9.30957 9.9932 9.45047 9.7424 9.70127C9.49161 9.95207 9.35071 10.2922 9.35071 10.6469C9.35071 11.0016 9.49161 11.3417 9.7424 11.5925C9.9932 11.8433 10.3334 11.9842 10.688 11.9842H21.288C21.6427 11.9842 21.9829 11.8433 22.2337 11.5925C22.4845 11.3417 22.6254 11.0016 22.6254 10.6469C22.6254 10.2922 22.4845 9.95207 22.2337 9.70127C21.9829 9.45047 21.6427 9.30957 21.288 9.30957H10.688V9.30957ZM9.35471 16.0002C9.35471 15.2642 9.95071 14.6629 10.688 14.6629H21.288C21.6427 14.6629 21.9829 14.8038 22.2337 15.0546C22.4845 15.3054 22.6254 15.6456 22.6254 16.0002C22.6254 16.3549 22.4845 16.6951 22.2337 16.9459C21.9829 17.1967 21.6427 17.3376 21.288 17.3376H10.688C9.95071 17.3376 9.35471 16.7376 9.35471 16.0002V16.0002ZM10.7 20.0162C10.3452 20.0162 10.0049 20.1572 9.75393 20.4081C9.50301 20.6591 9.36204 20.9994 9.36204 21.3542C9.36204 21.7091 9.50301 22.0494 9.75393 22.3003C10.0049 22.5513 10.3452 22.6922 10.7 22.6922H21.3C21.6549 22.6922 21.9952 22.5513 22.2462 22.3003C22.4971 22.0494 22.638 21.7091 22.638 21.3542C22.638 20.9994 22.4971 20.6591 22.2462 20.4081C21.9952 20.1572 21.6549 20.0162 21.3 20.0162H10.7V20.0162Z" fill="#0C6BED"/>
<path fill-rule="evenodd" clip-rule="evenodd" d="M4 8C4 6.93913 4.42143 5.92172 5.17157 5.17157C5.92172 4.42143 6.93913 4 8 4H24C25.0609 4 26.0783 4.42143 26.8284 5.17157C27.5786 5.92172 28 6.93913 28 8V24C28 25.0609 27.5786 26.0783 26.8284 26.8284C26.0783 27.5786 25.0609 28 24 28H8C6.93913 28 5.92172 27.5786 5.17157 26.8284C4.42143 26.0783 4 25.0609 4 24V8ZM8 6.66667H24C24.3536 6.66667 24.6928 6.80714 24.9428 7.05719C25.1929 7.30724 25.3333 7.64638 25.3333 8V24C25.3333 24.3536 25.1929 24.6928 24.9428 24.9428C24.6928 25.1929 24.3536 25.3333 24 25.3333H8C7.64638 25.3333 7.30724 25.1929 7.05719 24.9428C6.80714 24.6928 6.66667 24.3536 6.66667 24V8C6.66667 7.64638 6.80714 7.30724 7.05719 7.05719C7.30724 6.80714 7.64638 6.66667 8 6.66667V6.66667Z" fill="#0C6BED"/>
</svg>
