<svg width="32" height="25" viewBox="0 0 32 25" fill="none" xmlns="http://www.w3.org/2000/svg">
<path d="M31.0241 3.08244C29.9107 3.57578 28.7147 3.90911 27.4574 4.05978C28.7547 3.2835 29.7253 2.06173 30.1881 0.622444C28.9692 1.34643 27.6352 1.85604 26.2441 2.12911C25.3086 1.13026 24.0695 0.468212 22.7192 0.245742C21.3688 0.0232729 19.9829 0.252832 18.7764 0.898781C17.5699 1.54473 16.6104 2.57093 16.0469 3.81805C15.4834 5.06517 15.3474 6.46344 15.6601 7.79578C13.1903 7.67177 10.7742 7.02984 8.56862 5.91165C6.36302 4.79346 4.41718 3.22399 2.85739 1.30511C2.32406 2.22511 2.01739 3.29178 2.01739 4.42778C2.01679 5.45044 2.26863 6.45743 2.75056 7.35942C3.23249 8.26141 3.9296 9.03049 4.78006 9.59844C3.79376 9.56706 2.82922 9.30056 1.96672 8.82111V8.90111C1.96662 10.3354 2.46277 11.7256 3.37097 12.8358C4.27917 13.9459 5.54349 14.7077 6.94939 14.9918C6.03443 15.2394 5.07517 15.2759 4.14406 15.0984C4.54072 16.3326 5.31338 17.4118 6.35388 18.185C7.39438 18.9582 8.65061 19.3867 9.94672 19.4104C7.7465 21.1377 5.02924 22.0746 2.23206 22.0704C1.73656 22.0706 1.24149 22.0416 0.74939 21.9838C3.58869 23.8093 6.89384 24.7782 10.2694 24.7744C21.6961 24.7744 27.9427 15.3104 27.9427 7.10244C27.9427 6.83578 27.9361 6.56644 27.9241 6.29978C29.1391 5.42108 30.1879 4.33297 31.0214 3.08644L31.0241 3.08244Z" fill="url(#paint0_linear_7_265)"/>
<defs>
<linearGradient id="paint0_linear_7_265" x1="6.50158" y1="7.30038" x2="13.06" y2="25.7778" gradientUnits="userSpaceOnUse">
<stop stop-color="#00D4E0"/>
<stop offset="1" stop-color="#0C6BED"/>
</linearGradient>
</defs>
</svg>
